Ghost - 2012 - Upscaled DVDRip - 720p - x264 - AC3 5.1 - DrC - [D!D]

Screenshots :
 
http://i.imgur.com/30ilz.jpg 
http://i.imgur.com/zKUbS.png 
http://i.imgur.com/4n0nI.png 
http://i.imgur.com/KmE1f.png 
http://i.imgur.com/RDPKj.png 
http://i.imgur.com/lgtHX.png 
http://i.imgur.com/0hKFv.png 
http://i.imgur.com/7CoWp.png

Rip Specs :

General

Format                                   : Matroska
Format version                           : Version 2
File size                                : 2.00 GiB
Duration                                 : 1h 54mn
Overall bit rate mode                    : Variable
Overall bit rate                         : 2 504 Kbps


Video

Format                                   : AVC
Format/Info                              : Advanced Video Codec
Format profile                           : High@L4.1
Format settings, CABAC                   : Yes
Format settings, ReFrames                : 3 frames
Codec ID                                 : V_MPEG4/ISO/AVC
Duration                                 : 1h 54mn
Bit rate mode                            : Variable
Bit rate                                 : 2 054 Kbps
Maximum bit rate                         : 40.0 Mbps
Width                                    : 1 280 pixels
Height                                   : 544 pixels
Display aspect ratio                     : 2.35:1
Frame rate                               : 23.976 fps
Color space                              : YUV
Chroma subsampling                       : 4:2:0
Bit depth                                : 8 bits
Scan type                                : Progressive
Bits/(Pixel*Frame)                       : 0.123
Stream size                              : 1.60 GiB (80%)


Audio

Format                                   : AC-3
Format/Info                              : Audio Coding 3
Mode extension                           : CM (complete main)
Codec ID                                 : A_AC3
Duration                                 : 1h 54mn
Bit rate mode                            : Constant
Bit rate                                 : 448 Kbps
Channel(s)                               : 6 channels
Channel positions                        : Front: L C R, Side: L R, LFE
Sampling rate                            : 48.0 KHz
Bit depth                                : 16 bits
Compression mode                         : Lossy
Stream size                              : 366 MiB (18%)

Text
ID                                       : 3
Format                                   : VobSub
Muxing mode                              : zlib
Codec ID                                 : S_VOBSUB
Codec ID/Info                            : The same subtitle format used on DVDs